HIERARCHY
ROOT Hips
{
	OFFSET -351.999878 -572.954773 89.312325
	CHANNELS 6 Xposition Yposition Zposition Zrotation Yrotation Xrotation
	JOINT Spine
	{
		OFFSET 0.000000 2.080078 8.814247
		CHANNELS 6 Xposition Yposition Zposition Zrotation Yrotation Xrotation
		JOINT Spine1
		{
			OFFSET 0.000000 0.000000 8.844139
			CHANNELS 6 Xposition Yposition Zposition Zrotation Yrotation Xrotation
			JOINT Spine2
			{
				OFFSET 0.000000 0.000000 11.682266
				CHANNELS 6 Xposition Yposition Zposition Zrotation Yrotation Xrotation
				JOINT Spine3
				{
					OFFSET 0.000000 0.000000 11.746696
					CHANNELS 6 Xposition Yposition Zposition Zrotation Yrotation Xrotation
					JOINT Neck
					{
						OFFSET 0.000000 0.000000 17.658264
						CHANNELS 6 Xposition Yposition Zposition Zrotation Yrotation Xrotation
						JOINT Neck1
						{
							OFFSET 0.000000 0.000000 5.101517
							CHANNELS 6 Xposition Yposition Zposition Zrotation Yrotation Xrotation
							JOINT Head
							{
								OFFSET 0.000000 0.000000 5.101517
								CHANNELS 6 Xposition Yposition Zposition Zrotation Yrotation Xrotation
								JOINT HeadEnd
								{
									OFFSET 0.000000 0.000000 11.655090
									CHANNELS 6 Xposition Yposition Zposition Zrotation Yrotation Xrotation
									End Site
									{
										OFFSET 0.000000 0.000000 0.100006
									}
								}
							}
						}
					}
					JOINT RightShoulder
					{
						OFFSET -2.625397 0.000000 11.175217
						CHANNELS 6 Xposition Yposition Zposition Zrotation Yrotation Xrotation
						JOINT RightArm
						{
							OFFSET 0.000000 0.000000 10.434708
							CHANNELS 6 Xposition Yposition Zposition Zrotation Yrotation Xrotation
							JOINT RightForeArm
							{
								OFFSET 0.000000 0.000000 29.628418
								CHANNELS 6 Xposition Yposition Zposition Zrotation Yrotation Xrotation
								JOINT RightHand
								{
									OFFSET 0.000000 0.000000 22.857605
									CHANNELS 6 Xposition Yposition Zposition Zrotation Yrotation Xrotation
									JOINT RightHandThumb1
									{
										OFFSET -2.867310 -2.944275 3.959564
										CHANNELS 6 Xposition Yposition Zposition Zrotation Yrotation Xrotation
										JOINT RightHandThumb2
										{
											OFFSET 0.000000 0.000000 3.350403
											CHANNELS 6 Xposition Yposition Zposition Zrotation Yrotation Xrotation
											JOINT RightHandThumb3
											{
												OFFSET 0.000000 0.000000 3.756516
												CHANNELS 6 Xposition Yposition Zposition Zrotation Yrotation Xrotation
												JOINT RightHandThumb4
												{
													OFFSET 0.000000 0.000000 3.147339
													CHANNELS 6 Xposition Yposition Zposition Zrotation Yrotation Xrotation
													End Site
													{
														OFFSET 0.000000 0.000000 0.100006
													}
												}
											}
										}
									}
									JOINT RightHandIndex1
									{
										OFFSET -0.086761 -2.345276 10.030899
										CHANNELS 6 Xposition Yposition Zposition Zrotation Yrotation Xrotation
										JOINT RightHandIndex2
										{
											OFFSET 0.000000 0.000000 4.061096
											CHANNELS 6 Xposition Yposition Zposition Zrotation Yrotation Xrotation
											JOINT RightHandIndex3
											{
												OFFSET 0.000000 0.000000 3.248871
												CHANNELS 6 Xposition Yposition Zposition Zrotation Yrotation Xrotation
												JOINT RightHandIndex4
												{
													OFFSET 0.000000 0.000000 2.639709
													CHANNELS 6 Xposition Yposition Zposition Zrotation Yrotation Xrotation
													End Site
													{
														OFFSET 0.000000 0.000000 0.100006
													}
												}
											}
										}
									}
									JOINT RightHandMiddle1
									{
										OFFSET 0.104095 -0.006775 9.502945
										CHANNELS 6 Xposition Yposition Zposition Zrotation Yrotation Xrotation
										JOINT RightHandMiddle2
										{
											OFFSET 0.000000 0.000000 4.568726
											CHANNELS 6 Xposition Yposition Zposition Zrotation Yrotation Xrotation
											JOINT RightHandMiddle3
											{
												OFFSET 0.000000 0.000000 3.654984
												CHANNELS 6 Xposition Yposition Zposition Zrotation Yrotation Xrotation
												JOINT RightHandMiddle4
												{
													OFFSET 0.000000 0.000000 2.741241
													CHANNELS 6 Xposition Yposition Zposition Zrotation Yrotation Xrotation
													End Site
													{
														OFFSET 0.000000 0.000000 0.100006
													}
												}
											}
										}
									}
									JOINT RightHandRing1
									{
										OFFSET 0.086761 2.267456 8.921707
										CHANNELS 6 Xposition Yposition Zposition Zrotation Yrotation Xrotation
										JOINT RightHandRing2
										{
											OFFSET 0.000000 0.000000 4.061096
											CHANNELS 6 Xposition Yposition Zposition Zrotation Yrotation Xrotation
											JOINT RightHandRing3
											{
												OFFSET 0.000000 0.000000 3.654984
												CHANNELS 6 Xposition Yposition Zposition Zrotation Yrotation Xrotation
												JOINT RightHandRing4
												{
													OFFSET 0.000000 0.000000 2.741241
													CHANNELS 6 Xposition Yposition Zposition Zrotation Yrotation Xrotation
													End Site
													{
														OFFSET 0.000000 0.000000 0.100006
													}
												}
											}
										}
									}
									JOINT RightHandPinky1
									{
										OFFSET -0.173492 4.467224 7.976990
										CHANNELS 6 Xposition Yposition Zposition Zrotation Yrotation Xrotation
										JOINT RightHandPinky2
										{
											OFFSET 0.000000 0.000000 3.350403
											CHANNELS 6 Xposition Yposition Zposition Zrotation Yrotation Xrotation
											JOINT RightHandPinky3
											{
												OFFSET 0.000000 0.000000 2.842758
												CHANNELS 6 Xposition Yposition Zposition Zrotation Yrotation Xrotation
												JOINT RightHandPinky4
												{
													OFFSET 0.000000 0.000000 2.639709
													CHANNELS 6 Xposition Yposition Zposition Zrotation Yrotation Xrotation
													End Site
													{
														OFFSET 0.000000 0.000000 0.100006
													}
												}
											}
										}
									}
									JOINT RightForeArmEnd
									{
										OFFSET 0.000000 0.000000 0.000000
										CHANNELS 6 Xposition Yposition Zposition Zrotation Yrotation Xrotation
										End Site
										{
											OFFSET 0.000000 0.000000 0.100006
										}
									}
								}
								JOINT RightArmEnd
								{
									OFFSET 0.000000 0.000000 0.000000
									CHANNELS 6 Xposition Yposition Zposition Zrotation Yrotation Xrotation
									End Site
									{
										OFFSET 0.000000 0.000000 0.100006
									}
								}
							}
						}
					}
					JOINT LeftShoulder
					{
						OFFSET 2.625397 0.000000 11.175217
						CHANNELS 6 Xposition Yposition Zposition Zrotation Yrotation Xrotation
						JOINT LeftArm
						{
							OFFSET 0.000000 0.000000 10.813629
							CHANNELS 6 Xposition Yposition Zposition Zrotation Yrotation Xrotation
							JOINT LeftForeArm
							{
								OFFSET 0.000000 0.000000 28.724777
								CHANNELS 6 Xposition Yposition Zposition Zrotation Yrotation Xrotation
								JOINT LeftHand
								{
									OFFSET 0.644379 0.328857 25.716171
									CHANNELS 6 Xposition Yposition Zposition Zrotation Yrotation Xrotation
									JOINT LeftHandThumb1
									{
										OFFSET 2.867310 -2.944275 3.959564
										CHANNELS 6 Xposition Yposition Zposition Zrotation Yrotation Xrotation
										JOINT LeftHandThumb2
										{
											OFFSET 0.000000 0.000000 3.350403
											CHANNELS 6 Xposition Yposition Zposition Zrotation Yrotation Xrotation
											JOINT LeftHandThumb3
											{
												OFFSET 0.000000 0.000000 3.756516
												CHANNELS 6 Xposition Yposition Zposition Zrotation Yrotation Xrotation
												JOINT LeftHandThumb4
												{
													OFFSET 0.000000 0.000000 3.100006
													CHANNELS 6 Xposition Yposition Zposition Zrotation Yrotation Xrotation
													End Site
													{
														OFFSET 0.000000 0.000000 0.100006
													}
												}
											}
										}
									}
									JOINT LeftHandIndex1
									{
										OFFSET 0.086761 -2.345276 10.030899
										CHANNELS 6 Xposition Yposition Zposition Zrotation Yrotation Xrotation
										JOINT LeftHandIndex2
										{
											OFFSET 0.000000 0.000000 4.061096
											CHANNELS 6 Xposition Yposition Zposition Zrotation Yrotation Xrotation
											JOINT LeftHandIndex3
											{
												OFFSET 0.000000 0.000000 3.248871
												CHANNELS 6 Xposition Yposition Zposition Zrotation Yrotation Xrotation
												JOINT LeftHandIndex4
												{
													OFFSET 0.000000 0.000000 2.639709
													CHANNELS 6 Xposition Yposition Zposition Zrotation Yrotation Xrotation
													End Site
													{
														OFFSET 0.000000 0.000000 0.100006
													}
												}
											}
										}
									}
									JOINT LeftHandMiddle1
									{
										OFFSET -0.104095 -0.006775 9.502945
										CHANNELS 6 Xposition Yposition Zposition Zrotation Yrotation Xrotation
										JOINT LeftHandMiddle2
										{
											OFFSET 0.000000 0.000000 4.568726
											CHANNELS 6 Xposition Yposition Zposition Zrotation Yrotation Xrotation
											JOINT LeftHandMiddle3
											{
												OFFSET 0.000000 0.000000 3.654984
												CHANNELS 6 Xposition Yposition Zposition Zrotation Yrotation Xrotation
												JOINT LeftHandMiddle4
												{
													OFFSET 0.000000 0.000000 2.741241
													CHANNELS 6 Xposition Yposition Zposition Zrotation Yrotation Xrotation
													End Site
													{
														OFFSET 0.000000 0.000000 0.100006
													}
												}
											}
										}
									}
									JOINT LeftHandRing1
									{
										OFFSET -0.086761 2.267456 8.921707
										CHANNELS 6 Xposition Yposition Zposition Zrotation Yrotation Xrotation
										JOINT LeftHandRing2
										{
											OFFSET 0.000000 0.000000 4.061096
											CHANNELS 6 Xposition Yposition Zposition Zrotation Yrotation Xrotation
											JOINT LeftHandRing3
											{
												OFFSET 0.000000 0.000000 3.654984
												CHANNELS 6 Xposition Yposition Zposition Zrotation Yrotation Xrotation
												JOINT LeftHandRing4
												{
													OFFSET 0.000000 0.000000 2.741241
													CHANNELS 6 Xposition Yposition Zposition Zrotation Yrotation Xrotation
													End Site
													{
														OFFSET 0.000000 0.000000 0.100006
													}
												}
											}
										}
									}
									JOINT LeftHandPinky1
									{
										OFFSET 0.173492 4.467224 7.976990
										CHANNELS 6 Xposition Yposition Zposition Zrotation Yrotation Xrotation
										JOINT LeftHandPinky2
										{
											OFFSET 0.000000 0.000000 3.350403
											CHANNELS 6 Xposition Yposition Zposition Zrotation Yrotation Xrotation
											JOINT LeftHandPinky3
											{
												OFFSET 0.000000 0.000000 2.842758
												CHANNELS 6 Xposition Yposition Zposition Zrotation Yrotation Xrotation
												JOINT LeftHandPinky4
												{
													OFFSET 0.000000 0.000000 2.639709
													CHANNELS 6 Xposition Yposition Zposition Zrotation Yrotation Xrotation
													End Site
													{
														OFFSET 0.000000 0.000000 0.100006
													}
												}
											}
										}
									}
									JOINT LeftForeArmEnd
									{
										OFFSET 0.000000 0.000000 0.000000
										CHANNELS 6 Xposition Yposition Zposition Zrotation Yrotation Xrotation
										End Site
										{
											OFFSET 0.000000 0.000000 0.100006
										}
									}
								}
								JOINT LeftArmEnd
								{
									OFFSET 0.000000 0.000000 0.000000
									CHANNELS 6 Xposition Yposition Zposition Zrotation Yrotation Xrotation
									End Site
									{
										OFFSET 0.000000 0.000000 0.100006
									}
								}
							}
						}
					}
				}
			}
		}
	}
	JOINT RightUpLeg
	{
		OFFSET -11.289948 0.000000 0.000000
		CHANNELS 6 Xposition Yposition Zposition Zrotation Yrotation Xrotation
		JOINT RightLeg
		{
			OFFSET 0.000000 0.000000 -38.200329
			CHANNELS 6 Xposition Yposition Zposition Zrotation Yrotation Xrotation
			JOINT RightFoot
			{
				OFFSET 0.000000 0.000000 -39.900856
				CHANNELS 6 Xposition Yposition Zposition Zrotation Yrotation Xrotation
				JOINT RightToeBase
				{
					OFFSET 0.000000 -15.261658 0.000002
					CHANNELS 6 Xposition Yposition Zposition Zrotation Yrotation Xrotation
					JOINT RightToeBaseEnd
					{
						OFFSET 0.000000 -7.370728 0.000000
						CHANNELS 6 Xposition Yposition Zposition Zrotation Yrotation Xrotation
						End Site
						{
							OFFSET 0.000000 0.000000 0.100000
						}
					}
				}
				JOINT RightLegEnd
				{
					OFFSET 0.000000 0.000000 0.000000
					CHANNELS 6 Xposition Yposition Zposition Zrotation Yrotation Xrotation
					End Site
					{
						OFFSET 0.000000 0.000000 0.100000
					}
				}
			}
			JOINT RightUpLegEnd
			{
				OFFSET 0.000000 0.000000 0.000000
				CHANNELS 6 Xposition Yposition Zposition Zrotation Yrotation Xrotation
				End Site
				{
					OFFSET 0.000000 0.000000 0.099998
				}
			}
		}
	}
	JOINT LeftUpLeg
	{
		OFFSET 11.315674 0.000000 0.000000
		CHANNELS 6 Xposition Yposition Zposition Zrotation Yrotation Xrotation
		JOINT LeftLeg
		{
			OFFSET 0.000000 0.000000 -38.200329
			CHANNELS 6 Xposition Yposition Zposition Zrotation Yrotation Xrotation
			JOINT LeftFoot
			{
				OFFSET 0.000000 0.000000 -39.900856
				CHANNELS 6 Xposition Yposition Zposition Zrotation Yrotation Xrotation
				JOINT LeftToeBase
				{
					OFFSET 0.000000 -15.261658 0.000002
					CHANNELS 6 Xposition Yposition Zposition Zrotation Yrotation Xrotation
					JOINT LeftToeBaseEnd
					{
						OFFSET 0.000000 -7.539978 0.000000
						CHANNELS 6 Xposition Yposition Zposition Zrotation Yrotation Xrotation
						End Site
						{
							OFFSET 0.000000 0.000000 0.100000
						}
					}
				}
				JOINT LeftLegEnd
				{
					OFFSET 0.000000 0.000000 0.000000
					CHANNELS 6 Xposition Yposition Zposition Zrotation Yrotation Xrotation
					End Site
					{
						OFFSET 0.000000 0.000000 0.100000
					}
				}
			}
			JOINT LeftUpLegEnd
			{
				OFFSET 0.000000 0.000000 0.000000
				CHANNELS 6 Xposition Yposition Zposition Zrotation Yrotation Xrotation
				End Site
				{
					OFFSET 0.000000 0.000000 0.099998
				}
			}
		}
	}
}
MOTION
Frames: 2
Frame Time: 0.016667
-14.870575 -28.847107 87.474121 12.128702 -0.809407 -12.005907 0.000005 2.080070 8.814250 0.338860 0.129271 8.086164 0.000013 -0.000018 8.844154 0.234294 0.667243 3.669607 -0.000002 -0.000022 11.682274 0.702260 1.112524 8.601957 -0.000003 0.000018 11.746687 0.668661 1.703512 8.530743 -0.000011 0.000014 17.658257 -6.914700 -2.235443 0.148845 -0.000013 -0.000011 5.101498 -6.525351 0.681249 -5.446046 0.000006 0.000022 5.101532 -1.048430 -0.306601 -12.741273 -0.000000 -0.000000 11.655060 0.000000 -0.000000 -0.000000 -2.625397 -0.000024 11.175211 12.992037 -83.855981 0.646545 -0.000015 0.000005 10.434692 -66.242467 -56.296116 60.004544 -0.000006 0.000002 29.628414 20.130092 1.189279 91.506271 0.000015 0.000044 22.857552 -3.744639 -25.999390 -10.535406 -2.867325 -2.944260 3.959579 32.376572 -26.012502 39.209579 -0.000015 -0.000031 3.350357 -32.043225 10.626046 -54.110360 0.000008 -0.000015 3.756454 -21.288323 10.722346 -36.931632 -0.000004 0.000010 3.147335 -0.000002 -0.000001 0.000000 -0.086754 -2.345267 10.030932 -80.436618 -71.246721 76.985569 0.000000 -0.000023 4.061081 -7.415889 -59.501739 13.804372 0.000015 -0.000029 3.248878 -7.915894 -59.501760 13.804377 0.000001 0.000001 2.639733 0.000000 -0.000001 -0.000003 0.104082 -0.006766 9.502934 -54.281603 -73.467857 55.026975 0.000010 -0.000011 4.568722 -1.896151 -56.184518 4.487413 0.000015 0.000022 3.654978 -2.396146 -56.184497 4.487403 0.000036 -0.000006 2.741255 0.000000 0.000000 0.000000 0.086754 2.267485 8.921711 -20.806081 -75.164552 26.310599 0.000025 -0.000029 4.061089 1.312486 -52.928628 -4.643491 -0.000001 -0.000003 3.654982 2.312506 -52.928656 -4.643503 0.000000 -0.000002 2.741241 0.000000 0.000001 -0.000001 -0.173508 4.467274 7.977018 10.401323 -70.083403 -0.489538 0.000008 0.000011 3.350418 3.198930 -46.845378 -11.965541 0.000011 -0.000010 2.842758 5.198920 -46.845436 -11.965515 -0.000023 -0.000002 2.639706 -0.000001 -0.000002 -0.000002 -0.000018 0.000011 0.000014 -0.000002 -0.000001 0.000001 -0.000006 0.000003 0.000007 0.000000 0.000000 -0.000000 2.625389 0.000024 11.175200 -8.654838 76.621417 -0.411050 0.000000 0.000028 10.813625 58.479731 56.018985 52.392206 -0.000010 0.000017 28.724796 -17.521061 -0.650393 91.289576 0.644360 0.328850 25.716194 17.020434 21.241644 -35.332575 2.867220 -2.944351 3.959549 -32.129633 25.046112 40.507431 0.000000 -0.000076 3.350487 29.959255 -10.892622 -50.771730 -0.000031 0.000000 3.756485 19.848327 -10.492496 -34.618609 -0.000016 -0.000006 3.100031 -0.000000 0.000001 0.000001 0.086754 -2.345278 10.030964 4.482453 71.643760 -10.775440 -0.000019 0.000029 4.061111 -4.333815 51.203606 -10.068158 0.000002 -0.000021 3.248913 -4.833780 51.203360 -10.068110 -0.000034 -0.000001 2.639710 0.000000 -0.000001 -0.000000 -0.104103 -0.006771 9.502926 19.729476 71.567357 9.342178 0.000031 -0.000083 4.568743 -1.300093 51.286033 -3.748838 0.000012 -0.000052 3.655014 -1.800087 51.286046 -3.748833 -0.000019 -0.000008 2.741272 0.000001 -0.000000 0.000001 -0.086807 2.267446 8.921743 67.534773 74.354068 63.586609 -0.000038 0.000006 4.061132 2.198156 58.439454 5.714546 -0.000042 0.000023 3.655035 3.198110 58.439467 5.714492 -0.000030 0.000009 2.741249 -0.000001 -0.000001 -0.000001 0.173491 4.467153 7.977007 87.232321 66.982941 88.882119 -0.000038 0.000008 3.350426 9.820658 60.529956 20.119879 -0.000008 -0.000027 2.842812 11.820646 60.529963 20.119874 -0.000021 0.000003 2.639705 -0.000002 -0.000000 0.000002 -0.000006 -0.000001 -0.000004 -0.000000 -0.000001 0.000001 -0.000006 0.000005 0.000006 -0.000001 0.000002 -0.000001 -11.289892 0.000058 -0.000011 -8.391314 8.995646 -6.037639 0.000021 0.000051 -38.200294 -0.320675 0.267809 39.865448 -0.000001 -0.000056 -39.900871 -14.756122 -4.637728 17.380618 -0.000001 -15.261708 0.000046 0.283616 1.097104 -24.193505 0.000001 -7.370667 -0.000001 0.000000 0.000000 0.000000 -0.000000 0.000008 0.000002 -0.000001 0.000001 0.000005 0.000029 0.000062 0.000001 -0.000000 0.000000 -0.000001 11.315671 0.000029 -0.000022 -10.165832 0.997252 -0.177448 -0.000016 0.000054 -38.200317 0.262303 -0.119973 24.578296 0.000021 -0.000031 -39.900848 9.383374 -0.495012 15.085371 0.000039 -15.261704 0.000032 -0.647724 -0.579176 -20.773713 0.000015 -7.539969 -0.000001 -0.000001 -0.000000 0.000001 -0.000006 0.000007 0.000000 -0.000001 0.000000 -0.000002 0.000000 0.000003 -0.000000 -0.000000 0.000000 -0.000001 
-15.300476 -28.842896 87.447205 11.315497 -1.215268 -11.949775 -0.000014 2.080081 8.814249 0.341650 0.186161 7.893255 0.000007 -0.000009 8.844145 0.228022 0.690321 3.574438 0.000005 0.000004 11.682281 0.561664 1.201438 8.491697 -0.000005 0.000030 11.746671 0.579672 1.963450 8.417867 -0.000002 -0.000063 17.658264 -6.817006 -0.837128 -0.043201 0.000007 -0.000015 5.101542 -6.849957 0.935514 -5.431678 -0.000003 -0.000005 5.101500 -1.106423 -0.177677 -12.707161 -0.000000 -0.000000 11.655055 0.000000 -0.000001 0.000000 -2.625397 -0.000004 11.175201 13.034120 -83.840306 0.645649 0.000015 -0.000001 10.434734 -66.790794 -55.084188 59.829725 0.000022 0.000000 29.628414 20.109038 1.157301 91.424234 0.000053 0.000040 22.857590 -3.511605 -25.561686 -10.281958 -2.867310 -2.944260 3.959549 32.376524 -26.012273 39.209801 0.000008 -0.000031 3.350410 -32.043235 10.626022 -54.110425 -0.000008 -0.000015 3.756470 -21.288308 10.722343 -36.931687 -0.000015 0.000005 3.147339 -0.000001 0.000000 0.000000 -0.086748 -2.345253 10.030864 -82.331148 -71.341961 79.090066 -0.000004 -0.000010 4.061089 -7.632355 -59.941829 14.055012 -0.000008 -0.000019 3.248863 -8.132380 -59.941829 14.055041 0.000010 0.000011 2.639706 -0.000000 0.000000 -0.000001 0.104098 -0.006770 9.502949 -55.736386 -73.749787 56.851742 0.000002 -0.000026 4.568748 -1.948166 -56.549154 4.549882 0.000007 0.000023 3.654984 -2.448181 -56.549178 4.549903 -0.000004 -0.000011 2.741245 0.000000 0.000000 -0.000000 0.086765 2.267456 8.921719 -21.384025 -75.505740 27.292568 -0.000013 -0.000020 4.061111 1.344352 -53.163293 -4.683345 -0.000020 -0.000022 3.654984 2.344364 -53.163300 -4.683354 0.000003 -0.000002 2.741254 -0.000000 0.000001 -0.000001 -0.173492 4.467258 7.977000 10.487782 -70.410767 -0.313791 0.000008 -0.000007 3.350395 3.253904 -47.021976 -12.040787 0.000015 0.000023 2.842758 5.253891 -47.022007 -12.040753 -0.000010 0.000019 2.639699 -0.000001 0.000003 0.000001 -0.000003 0.000026 -0.000011 -0.000003 -0.000002 -0.000001 -0.000015 0.000003 0.000012 0.000000 -0.000000 -0.000001 2.625397 -0.000065 11.175212 -8.721071 76.774140 -0.415876 -0.000053 -0.000014 10.813622 56.297435 56.079384 50.295433 -0.000044 -0.000033 28.724712 -17.502361 -0.656221 91.689682 0.644352 0.328827 25.716156 15.763493 23.187379 -35.570024 2.867235 -2.944321 3.959503 -32.085046 24.853701 40.767138 -0.000038 -0.000031 3.350471 29.540698 -10.932501 -50.103177 -0.000038 0.000015 3.756523 19.561646 -10.439733 -34.157148 -0.000024 0.000002 3.100006 -0.000000 -0.000000 -0.000000 0.086769 -2.345290 10.030930 3.716490 69.806671 -10.766309 0.000000 -0.000016 4.061138 -3.972599 49.879239 -9.600342 0.000000 0.000021 3.248940 -4.472613 49.879239 -9.600356 -0.000039 0.000001 2.639706 -0.000001 0.000000 0.000000 -0.104149 -0.006809 9.502954 18.059143 70.153522 8.149282 0.000045 -0.000047 4.568722 -1.191205 50.214291 -3.608209 -0.000001 -0.000079 3.654984 -1.691201 50.214263 -3.608220 -0.000071 0.000004 2.741248 -0.000000 0.000001 0.000001 -0.086761 2.267457 8.921709 65.475334 74.109417 62.161060 -0.000019 0.000029 4.061110 2.123974 58.046410 5.627291 -0.000015 -0.000031 3.655035 3.124028 58.046410 5.627353 -0.000021 -0.000002 2.741266 0.000000 -0.000001 -0.000003 0.173514 4.467169 7.976964 87.198921 66.985339 89.717813 -0.000046 -0.000029 3.350441 9.908597 60.647545 20.220837 -0.000027 0.000019 2.842781 11.908734 60.647565 20.220948 -0.000017 0.000010 2.639706 -0.000002 0.000001 0.000001 -0.000007 -0.000020 -0.000022 0.000003 -0.000000 0.000000 -0.000014 0.000020 -0.000018 -0.000004 0.000001 -0.000001 -11.289901 0.000028 0.000004 -7.519034 9.007703 -4.835231 0.000043 0.000023 -38.200279 -0.400217 0.321311 38.757659 0.000008 -0.000064 -39.900864 -15.140965 -5.143003 18.191300 -0.000009 -15.261702 0.000034 0.342716 1.170427 -24.115009 -0.000017 -7.370679 0.000000 0.000002 0.000000 -0.000000 -0.000013 0.000068 -0.000002 -0.000001 0.000001 0.000003 0.000030 0.000003 0.000000 -0.000000 0.000000 -0.000000 11.315696 -0.000040 -0.000008 -9.448776 0.952658 0.119439 0.000000 0.000059 -38.200329 0.314978 -0.140588 24.052276 0.000009 0.000007 -39.900856 9.429313 -0.182943 15.257090 0.000037 -15.261680 0.000032 -0.705878 -0.605269 -20.812466 -0.000007 -7.539971 -0.000000 -0.000001 -0.000000 -0.000000 -0.000006 0.000007 -0.000003 -0.000001 -0.000000 0.000002 -0.000002 -0.000001 -0.000008 0.000000 0.000000 -0.000002 
